<svg id="Layer_1" enable-background="new 0 0 512 512" height="512" viewBox="0 0 512 512" width="512" xmlns="http://www.w3.org/2000/svg"><g><path d="m12.141 290.658s50.539 74.452 253.199 74.452c202.652 0 235.557-91.236 235.559-91.243.063-2.282.101-4.57.101-6.867 0-135.31-109.69-245-245-245s-245 109.69-245 245c0 7.982.395 15.871 1.141 23.658z" fill="#85faf4"/><path d="m120.018 127.668h115.839c8.184-12.93 16.188-24.29 24.303-31.848 2.075-1.933 4.963-2.676 7.725-1.985 2.755.689 4.948 2.698 5.866 5.373 2.133 6.212 4.821 12.592 7.991 18.962l.282.568.605.192c.195.062 8.226 2.686 19.689 8.737h74.993c11.954 0 21.529-10.182 20.527-22.347-.829-10.055-8.835-17.655-18.253-18.72-4.486-.507-7.81-4.242-7.748-8.757.03-2.195-.19-4.334-.609-6.403h-81.656c-3.232 0-6.343-1.365-8.534-3.744-2.221-2.412-3.295-5.552-3.024-8.843.452-5.482 4.775-9.912 10.279-10.535 3.619-.409 6.31-3.452 6.259-7.079-.076-5.558 2.449-10.835 6.927-14.479 3.271-2.663 7.186-4.12 11.175-4.243-6.746-6.159-15.798-9.816-25.663-9.552-10.175.272-19.265 4.756-25.713 11.677-2.211 2.373-5.813 2.944-8.598 1.281-16.368-9.778-38.121-1.985-44.539 15.942-1.112 3.105-4.294 5.002-7.557 4.519-17.252-2.553-33.699 9.723-35.855 27.425-.569 4.675-4.913 8.075-9.56 7.309-10.268-1.694-20.927 2.952-26.439 12.478-1.632 2.82-4.645 4.658-7.892 4.386-8.244-.69-16.068 5.742-16.085 14.791-.016 8.287 6.978 14.895 15.265 14.895z" fill="#8bc2ef"/><g><path d="m206.593 127.567c4.153-2.221 5.529-7.563 3.134-11.618-9.066-15.356-3.493-35.108 11.748-43.586 2.882-1.603 4.253-5.045 3.244-8.186-5.779-17.993 6.508-37.255 25.207-39.701-15.967-7.43-35.721.452-41.785 17.39-1.112 3.105-4.294 5.002-7.557 4.519-17.252-2.553-33.699 9.723-35.855 27.425-.569 4.675-4.913 8.075-9.56 7.309-10.268-1.694-20.927 2.952-26.439 12.478-1.632 2.82-4.645 4.658-7.892 4.386-8.244-.69-16.068 5.742-16.085 14.792-.016 8.286 6.978 14.894 15.265 14.894h86.401c.059-.033.114-.071.174-.102z" fill="#64b6ec"/></g><path d="m276.519 58.732c.527-6.394 5.618-11.226 11.606-11.903 2.853-.322 4.966-2.697 4.927-5.568-.173-12.616 11.99-22.535 24.323-19.8 2.865.635 5.728-1.087 6.446-3.932 2.603-10.316 12.084-17.818 23.181-17.521 6.47.173 12.25 3.024 16.35 7.425 1.406 1.509 3.696 1.872 5.467.814 10.407-6.217 24.24-1.262 28.32 10.137.707 1.974 2.731 3.18 4.805 2.873 10.97-1.624 21.428 6.183 22.799 17.438.362 2.973 3.124 5.135 6.079 4.647 6.529-1.077 13.306 1.877 16.811 7.934 1.038 1.793 2.953 2.962 5.018 2.789 5.242-.439 10.217 3.651 10.228 9.405.01 5.269-4.437 9.471-9.706 9.471h-163.602c-7.601.001-13.689-6.474-13.052-14.209z" fill="#e6f0ff"/><g><path d="m336.408 70.446c-6.458-10.84-.884-25.511 11.164-29.308 2.799-.882 4.417-3.805 3.616-6.628-2.904-10.236 1.556-21.473 11.314-26.764.255-.138.513-.265.77-.392-4.095-4.354-9.841-7.172-16.271-7.344-11.097-.297-20.577 7.205-23.181 17.521-.718 2.845-3.581 4.567-6.446 3.932-12.333-2.735-24.495 7.183-24.323 19.8.039 2.871-2.074 5.245-4.927 5.568-5.989.677-11.079 5.509-11.606 11.903-.638 7.735 5.451 14.209 13.052 14.209h47.59c-.052-.855-.283-1.709-.752-2.497z" fill="#c5def8"/></g><path d="m410.202 253.598c-24.139-10.712-28.661-27.459-34.796-46.162v14.896c0 4.377-1.745 8.451-4.912 11.473-3.167 3.019-7.317 4.579-11.712 4.362-5.798-.273-10.733-3.73-13.264-8.697 7.461 26.317 15.488 50.051 41.048 50.051 17.58 0 33.261 5.727 46.609 17.021 9.918 8.392 23.198 10.956 35.174 7.745-11.102-17.094-29.542-37.995-58.147-50.689z" fill="#64b6ec"/><path d="m375.406 207.436v14.896c0 4.377-1.745 8.451-4.912 11.473-3.167 3.019-7.317 4.579-11.712 4.362-5.798-.273-10.733-3.73-13.264-8.697 7.461 26.317 15.488 50.051 41.048 50.051 3.515 0 6.95.24 10.31.696-7.788-23.37 13.327-26.619 13.327-26.619-24.14-10.712-28.662-27.459-34.797-46.162z" fill="#4b9fdb"/><path d="m361.952 177.848c-30.417-44.917-78.868-60.346-78.868-60.346l-.811 1.674c7.113 14.032 18.347 31.523 35.734 48.911 14.28 14.28 20.364 35.953 26.249 56.912.84 2.994 1.677 5.967 2.532 8.895 2.973 3.341 7.164 5.548 11.922 5.772 9.965.47 18.194-7.471 18.194-17.334v-10.303c-3.561-10.872-7.074-22.548-14.952-34.181z" fill="#c5def8"/><path d="m482.734 294.955c-13.81 12.125-34.563 12.311-48.592.44-10.505-8.889-26.146-17.375-47.577-17.375-44.998 0-33.26-76.758-67.497-110.994-.634-.634-1.253-1.269-1.871-1.903v33.737c0 2.932-.951 5.828-2.875 8.04-2.436 2.801-5.899 4.26-9.54 4.089-6.316-.298-11.264-5.658-11.264-12.202v-18.892c0-8.149-6.203-14.826-14.123-15.2-.242-.011-.484-.017-.726-.017-3.833 0-7.443 1.441-10.23 4.101-2.966 2.828-4.599 6.642-4.6 10.738v19.293c0 3.277-1.199 6.496-3.537 8.793-2.381 2.34-5.53 3.543-8.878 3.386-6.316-.298-11.264-5.658-11.264-12.202v-9.052c0-1.009-.513-1.993-1.416-2.445-1.224-.613-2.665-.172-3.376.967-2.257 3.612-6.303 5.741-10.557 5.569-6.247-.261-11.33-5.74-11.33-12.213v-20.26c-19.348 31.214-40.912 61.271-68.328 66.621-52.877 10.317-90.034 56.913-133.013 62.683.882 9.2 2.272 18.251 4.142 27.125 12.229 5.392 24.402 13.33 35.799 24.726 59.247 59.247 93.453 81.831 139.493 58.913 54.857-27.306 80.996-90.233 170.991-40.825 40.363 22.159 75.445 30.003 106.668 27.112 19.156-33.766 30.528-72.523 31.665-113.842-5.065 8.255-11.554 15.286-18.164 21.089z" fill="#8bc2ef"/><path d="m240.162 198.788v-9.052c0-1.009-.513-1.993-1.416-2.445-1.224-.613-2.665-.172-3.376.967-2.257 3.612-6.303 5.741-10.557 5.569-6.247-.261-11.33-5.74-11.33-12.213v-20.26c-19.348 31.214-40.912 61.271-68.328 66.621-52.877 10.317-90.034 56.913-133.013 62.683.882 9.2 2.272 18.251 4.142 27.125 12.229 5.392 24.402 13.33 35.799 24.726 23.969 23.969 43.838 41.934 62.052 53.316 18.378-13.443 31.343-29.65 30.681-48.497-2.187-62.171 74.684-80.828 79.184-107.642 4.5-26.815 27.425-28.695 27.425-28.695-6.315-.298-11.263-5.658-11.263-12.203z" fill="#64b6ec"/><path d="m318.698 199.165v-32.516c-26.349-26.486-38.387-52.956-43.528-67.928-2.312-6.732-10.824-8.85-16.032-3.998-15.545 14.479-30.505 42.406-47.154 69.042v17.85c0 7.212 5.562 13.41 12.768 13.711 5.012.209 9.441-2.35 11.891-6.273.271-.434.787-.645 1.273-.486.446.146.747.562.747 1.031v9.191c0 7.182 5.519 13.363 12.694 13.701 7.66.361 13.985-5.743 13.985-13.324v-19.646c.001-7.581 6.326-13.685 13.986-13.323 7.174.339 12.693 6.519 12.693 13.701v18.891c0 7.182 5.519 13.363 12.693 13.701 7.658.36 13.984-5.744 13.984-13.325z" fill="#e6f0ff"/><path d="m119.815 354.872c-1.068 1.769-3.241 2.285-4.969 1.153-7.38-4.834-17.229-4.132-23.842 1.82-1.438 1.294-3.646 1.14-4.885-.347-5.707-6.852-15.385-8.938-23.37-5.197-.182.085-.368.14-.554.193 53.159 51.736 86.024 70.51 129.379 48.929 23.124-11.511 41.146-29.351 60.999-42.438-6.317-9.315-19.668-11.399-28.531-4.194-1.592 1.295-3.922.981-5.069-.721-7.197-10.675-23.084-11.474-31.302-1.49-1.255 1.525-3.522 1.726-5.038.46-7.409-6.188-18.333-6.001-25.531.379-1.507 1.336-3.853 1.208-5.085-.387-8.272-10.714-25.214-9.739-32.202 1.84z" fill="#4b9fdb"/><g><path d="m159.816 410.18c-6.088-10.97-.031-25.476 12.49-28.497 1.958-.473 3.034-2.561 2.43-4.483-2.859-9.103 1.347-19.055 9.882-23.348-.706-.061-1.401-.326-1.984-.813-7.409-6.188-18.333-6.001-25.531.379-1.507 1.336-3.853 1.208-5.085-.387-8.272-10.713-25.213-9.738-32.202 1.84-1.068 1.769-3.241 2.285-4.969 1.153-7.38-4.834-17.229-4.132-23.842 1.82-1.438 1.294-3.646 1.14-4.885-.347-5.707-6.852-15.385-8.938-23.37-5.197-.182.085-.368.14-.554.193 39.547 38.488 67.862 58.727 97.62 57.687z" fill="#3188ca"/></g><path d="m481.701 315.689c-2.201-.013-4.32.359-6.3 1.05-2.65.925-5.508-.22-6.874-2.671-3.412-6.119-9.878-10.34-17.265-10.259-9.17.1-16.826 6.489-18.87 15.057-.465 1.952-2.453 3.07-4.37 2.474-9.541-2.97-20.033 1.859-23.905 11.144-.785 1.883-2.938 2.696-4.785 1.83-6.176-2.894-13.47-2.362-19.17 1.431-1.738 1.156-4.057.438-4.974-1.437-5.547-11.348-20.81-14.477-30.395-6.142-1.515 1.317-3.822 1.104-5.065-.471-9.947-12.603-30.897-7.832-34.388 7.854-.416 1.866-2.329 3.055-4.187 2.603-7.705-1.874-15.495 1.216-20.08 7.08 21.134-6.072 46.48-3.857 81.494 15.366 40.364 22.16 75.446 30.002 106.669 27.11 11.665-20.562 20.44-42.975 25.777-66.692-3.445-3.248-8.083-5.296-13.312-5.327z" fill="#4b9fdb"/><path d="m430.728 373.727c2.024.512 4.07-.795 4.31-2.868.786-6.802 5.093-12.714 11.291-15.559 1.854-.851 2.624-3.02 1.694-4.835-4.587-8.953-1.496-20.081 6.934-25.447 1.693-1.077 2.124-3.317.934-4.933-3.466-4.71-4.585-10.686-3.245-16.24-.458-.029-.92-.041-1.385-.036-9.17.1-16.826 6.489-18.87 15.057-.465 1.952-2.453 3.07-4.37 2.474-9.541-2.97-20.033 1.859-23.905 11.144-.785 1.883-2.938 2.696-4.785 1.83-6.176-2.894-13.47-2.362-19.17 1.431-1.738 1.156-4.057.438-4.974-1.437-5.547-11.348-20.81-14.477-30.395-6.142-1.515 1.317-3.822 1.104-5.065-.471-9.947-12.603-30.897-7.832-34.388 7.854-.416 1.866-2.329 3.055-4.187 2.603-7.705-1.874-15.495 1.216-20.08 7.08 21.134-6.072 46.48-3.857 81.494 15.366 16.804 9.226 32.69 15.962 47.766 20.482 4.562-6.031 12.477-9.355 20.396-7.353z" fill="#3188ca"/><path d="m362.566 358.598c-89.995-49.408-116.135 13.519-170.991 40.825-46.04 22.917-80.246.333-139.493-58.914-11.539-11.539-23.874-19.532-36.257-24.927 22.54 112.036 121.499 196.418 240.175 196.418 92.287 0 172.642-51.034 214.42-126.412-31.521 3.203-66.978-4.55-107.854-26.99z" fill="#64b6ec"/><path d="m259.137 94.722c-15.545 14.479-30.505 42.406-47.154 69.042v17.85c0 7.212 5.562 13.41 12.768 13.711 5.012.209 9.441-2.35 11.891-6.273.271-.434.787-.645 1.273-.486.446.146.747.562.747 1.031v9.191c0 7.182 5.519 13.363 12.694 13.701 7.66.361 13.985-5.743 13.985-13.324v-19.646c-24.16-41.982 9.829-80.798 9.829-80.798-2.312-6.732-10.825-8.85-16.033-3.999z" fill="#c5def8"/><path d="m177.345 443.357c-18.325-10.896-20.619-24.348-18.268-35.152-31.962.741-62.378-23.079-106.994-67.695-11.539-11.539-23.874-19.532-36.257-24.927 17.617 87.571 81.924 158.245 165.839 184.936 17.205-17.008 22.567-41.176-4.32-57.162z" fill="#4b9fdb"/></g></svg>